<svg width="26" height="31" viewBox="0 0 26 31" fill="none" xmlns="http://www.w3.org/2000/svg">
<path d="M25.1557 22.3098C25.1557 18.6508 25.1557 13.0607 25.1557 5.74262C25.1557 4.11639 23.8344 2.79508 22.2082 2.79508H3.70984C2.08361 2.79508 0.762295 4.11639 0.762295 5.74262V23.4279C0.762295 25.0541 2.08361 26.3754 3.70984 26.3754H7.16557H12.959" stroke="white" stroke-width="1.5" stroke-linecap="round" stroke-linejoin="round"/>
<path d="M25.1557 8.99518H0.762295" stroke="white" stroke-width="1.5" stroke-linecap="round" stroke-linejoin="round"/>
<path d="M19.0574 0.762295V5.84426" stroke="white" stroke-width="1.5" stroke-linecap="round" stroke-linejoin="round"/>
<path d="M6.86066 0.762295V5.84426" stroke="white" stroke-width="1.5" stroke-linecap="round" stroke-linejoin="round"/>
<path d="M19.0574 30.2377C15.6893 30.2377 12.959 27.5074 12.959 24.1393C12.959 20.7713 15.6893 18.041 19.0574 18.041C22.4254 18.041 25.1557 20.7713 25.1557 24.1393C25.1557 27.5074 22.4254 30.2377 19.0574 30.2377Z" stroke="white" stroke-width="1.5" stroke-linecap="round" stroke-linejoin="round"/>
<path d="M19.0574 22.1066V25.1557H21.0902" stroke="white" stroke-width="1.5" stroke-linecap="round" stroke-linejoin="round"/>
</svg>
