<svg width="79" height="73" viewBox="0 0 79 73" fill="none" xmlns="http://www.w3.org/2000/svg">
<g opacity="0.5">
<path d="M11.2429 25.8248C21.0479 16.1445 39.4807 5.59726 53.0381 1.91252C62.2946 -0.603795 65.5498 -0.633004 65.5498 1.80089C65.5498 3.73403 64.2736 4.2828 53.0381 7.18928C44.4843 9.40201 30.146 16.4293 24.8869 20.9882C20.9082 24.4372 21.9738 24.0106 28.7561 19.4391C36.1932 14.4273 56.0597 8.4015 67.8206 7.59194C76.8144 6.97121 78.0927 7.09538 78.6881 8.64669C79.0582 9.61274 79.1062 10.6602 78.7934 10.9721C78.4806 11.2851 73.1443 12.1405 66.9354 12.8739C60.7255 13.6073 54.4717 14.71 53.0381 15.3255C51.6045 15.941 47.0221 17.4537 42.8557 18.6868C36.0869 20.6909 27.139 25.6516 22.8016 29.8047C21.4222 31.1255 21.8309 31.8494 26.2569 35.9369C30.7976 40.1286 31.6442 40.5126 35.1194 39.9576C60.8412 35.8472 67.5089 36.3125 69.8131 42.3779C71.1081 45.7841 70.3449 49.3332 66.4934 57.8336C64.8272 61.5089 63.4645 65.2031 63.4645 66.043C63.4645 68.2985 61.5137 69.1028 59.6975 67.5942C57.4975 65.7675 58.7517 57.047 62.0235 51.4302C63.3894 49.085 64.5071 46.4372 64.5071 45.5462C64.5071 43.0414 58.4254 42.8276 45.9211 44.8922C30.9165 47.3699 29.4703 47.3188 26.7772 44.2193C25.5312 42.7848 24.084 41.6111 23.5627 41.6111C23.0414 41.6111 21.7673 40.5648 20.732 39.2848L18.85 36.9593L13.788 39.3264C11.0041 40.6295 7.44358 42.3539 5.8765 43.1593C3.26052 44.503 2.89768 44.4384 1.44529 42.3634C-1.01325 38.8508 -0.479429 36.928 4.16344 32.5891C6.52814 30.3785 9.71442 27.3354 11.2429 25.8248Z" fill="white"/>
<path d="M12.4169 53.3529C12.9695 49.955 14.1029 47.0569 15.207 46.2192C17.5592 44.4342 17.8115 44.4332 20.2169 46.1931C22.152 47.6088 22.126 47.879 19.1993 56.8864C17.5477 61.9691 15.4698 67.418 14.5825 68.9964C11.2888 74.8511 8.29119 70.9462 10.3129 63.4348C10.9583 61.0364 11.905 56.4993 12.4169 53.3529Z" fill="white"/>
<path d="M35.0495 50.7062C38.3484 49.7881 43.1591 48.5873 45.7396 48.0375C50.9706 46.9233 55.2266 47.4105 56.4006 49.2571C58.1428 51.9977 55.6082 69.7955 53.3697 70.5393C50.8663 71.3708 49.8132 66.9672 50.9007 60.2101C51.4742 56.6464 51.7838 53.5709 51.5888 53.3748C51.2135 53.0003 43.2561 54.6976 37.8458 56.3074C36.0848 56.8311 32.9496 57.2598 30.8779 57.2598C26.7396 57.2598 26.5134 57.6104 25.354 65.8333C24.5407 71.6056 22.7099 73.7473 20.683 71.303C19.5809 69.9739 19.5715 68.0846 20.636 61.1188C22.1875 50.9618 22.9914 49.6129 26.527 51.2247C28.4652 52.1083 30.4442 51.9883 35.0495 50.7062Z" fill="white"/>
</g>
</svg>
