<svg width="18" height="18" viewBox="0 0 18 18" fill="none" xmlns="http://www.w3.org/2000/svg">
<path d="M11.3969 11.1183V10.5916H11.2815L11.1767 10.6398L11.3969 11.1183ZM6.57818 11.1183L6.79752 10.6395L6.69307 10.5916H6.57818V11.1183ZM8.98754 10.5859C11.9066 10.5859 14.2734 8.21444 14.2734 5.29293H13.2201C13.2201 7.63415 11.3234 9.5325 8.98754 9.5325V10.5859ZM3.70162 5.29293C3.70162 8.21444 6.06843 10.5859 8.98754 10.5859V9.5325C6.65165 9.5325 4.75499 7.63415 4.75499 5.29293H3.70162ZM8.98754 0C6.06843 0 3.70162 2.37142 3.70162 5.29293H4.75499C4.75499 2.95171 6.65165 1.05337 8.98754 1.05337V0ZM14.2734 5.29293C14.2734 2.37142 11.9066 0 8.98754 0V1.05337C11.3234 1.05337 13.2201 2.95171 13.2201 5.29293H14.2734ZM13.218 10.5916H11.3969V11.645H13.218V10.5916ZM17.9751 15.355C17.9751 12.7247 15.8462 10.5916 13.218 10.5916V11.645C15.263 11.645 16.9217 13.305 16.9217 15.355H17.9751ZM17.9751 15.8846V15.355H16.9217V15.8846H17.9751ZM15.862 18C17.0294 18 17.9751 17.0518 17.9751 15.8846H16.9217C16.9217 16.4715 16.4462 16.9466 15.862 16.9466V18ZM2.11309 18H15.862V16.9466H2.11309V18ZM0 15.8846C0 17.0518 0.945653 18 2.11309 18V16.9466C1.52887 16.9466 1.05337 16.4715 1.05337 15.8846H0ZM0 15.355V15.8846H1.05337V15.355H0ZM4.75711 10.5916C2.12885 10.5916 0 12.7247 0 15.355H1.05337C1.05337 13.305 2.71207 11.645 4.75711 11.645V10.5916ZM6.57818 10.5916H4.75711V11.645H6.57818V10.5916ZM8.98754 11.1212C8.20785 11.1212 7.46936 10.9472 6.79752 10.6395L6.35883 11.5971C7.16103 11.9646 8.04862 12.1746 8.98754 12.1746V11.1212ZM11.1767 10.6398C10.5091 10.947 9.76768 11.1212 8.98754 11.1212V12.1746C9.92601 12.1746 10.8172 11.9648 11.6171 11.5968L11.1767 10.6398Z" fill="white"/>
</svg>
