<svg width="312" height="175" viewBox="0 0 312 175" fill="none" xmlns="http://www.w3.org/2000/svg">
<g opacity="0.7">
<path opacity="0.5" d="M304.597 65.2998C308.528 65.2998 311.715 62.108 311.715 58.1707C311.715 54.2335 308.528 51.0417 304.597 51.0417C300.665 51.0417 297.478 54.2335 297.478 58.1707C297.478 62.108 300.665 65.2998 304.597 65.2998Z" fill="white"/>
<path opacity="0.5" d="M304.597 65.2998C308.528 65.2998 311.715 62.108 311.715 58.1707C311.715 54.2335 308.528 51.0417 304.597 51.0417C300.665 51.0417 297.478 54.2335 297.478 58.1707C297.478 62.108 300.665 65.2998 304.597 65.2998Z" fill="white"/>
<path opacity="0.5" d="M304.597 65.2998C308.528 65.2998 311.715 62.108 311.715 58.1707C311.715 54.2335 308.528 51.0417 304.597 51.0417C300.665 51.0417 297.478 54.2335 297.478 58.1707C297.478 62.108 300.665 65.2998 304.597 65.2998Z" fill="white"/>
</g>
<path opacity="0.5" d="M7.11856 15.2998C11.05 15.2998 14.2371 12.108 14.2371 8.17073C14.2371 4.23346 11.05 1.04166 7.11856 1.04166C3.18709 1.04166 0 4.23346 0 8.17073C0 12.108 3.18709 15.2998 7.11856 15.2998Z" fill="white"/>
<path opacity="0.5" d="M231.538 2.62488C230.188 1.64967 223.224 -2.9518 219.56 2.96479C217.298 6.61769 218.541 9.86337 222.267 12.1058C222.267 12.1062 222.271 12.1082 222.271 12.1082C235.242 19.9364 258 36.2815 277.971 63.9741C277.971 63.9736 261.448 25.3712 231.538 2.62488Z" fill="white"/>
<path opacity="0.5" d="M7.11856 15.2998C11.05 15.2998 14.2371 12.108 14.2371 8.17072C14.2371 4.23346 11.05 1.04166 7.11856 1.04166C3.18709 1.04166 0 4.23346 0 8.17072C0 12.108 3.18709 15.2998 7.11856 15.2998Z" fill="white"/>
<path opacity="0.5" d="M176.303 175C178.313 175 179.943 173.368 179.943 171.354C179.943 169.341 178.313 167.708 176.303 167.708C174.292 167.708 172.662 169.341 172.662 171.354C172.662 173.368 174.292 175 176.303 175Z" fill="white"/>
<path opacity="0.5" d="M231.538 2.62488C230.188 1.64967 223.224 -2.9518 219.56 2.96479C217.298 6.61769 218.541 9.86337 222.267 12.1058C222.267 12.1062 222.271 12.1082 222.271 12.1082C235.242 19.9364 258 36.2815 277.971 63.9741C277.971 63.9736 261.448 25.3712 231.538 2.62488Z" fill="white"/>
</svg>
