<svg width="15" height="19" viewBox="0 0 15 19" fill="none" xmlns="http://www.w3.org/2000/svg">
<path d="M7.38107 0.516168L7.36742 1.02977L7.38107 1.03013L7.39471 1.02977L7.38107 0.516168ZM2.57474 2.57906L2.89891 2.97766L2.93499 2.94832L2.96521 2.91298L2.57474 2.57906ZM12.1874 2.57906L11.7969 2.91298L11.8271 2.94832L11.8632 2.97766L12.1874 2.57906ZM14.2472 7.39247L13.7335 7.38375L13.7335 7.39235L14.2472 7.39247ZM7.38107 18.3946L7.11877 18.8363L7.39442 19L7.66259 18.8243L7.38107 18.3946ZM0.514883 7.39247L1.02874 7.39236L1.02859 7.38375L0.514883 7.39247ZM7.39471 0.00256875C5.4319 -0.0495927 3.51071 0.694059 2.18427 2.24514L2.96521 2.91298C4.06931 1.62189 5.68077 0.984945 7.36742 1.02977L7.39471 0.00256875ZM12.5779 2.24514C11.2514 0.694059 9.33023 -0.0495927 7.36742 0.00256875L7.39471 1.02977C9.08136 0.984945 10.6928 1.62189 11.7969 2.91298L12.5779 2.24514ZM14.761 7.4012C14.7963 5.32007 14.0325 3.41737 12.5116 2.18046L11.8632 2.97766C13.0995 3.98306 13.7645 5.56254 13.7335 7.38375L14.761 7.4012ZM7.66259 18.8243C7.76365 18.7581 7.94649 18.6061 8.16523 18.4111C8.39532 18.206 8.69215 17.9289 9.03192 17.592C9.71109 16.9187 10.5678 16.0008 11.4093 14.9352C13.0701 12.8323 14.7604 10.0456 14.761 7.3926L13.7335 7.39235C13.7329 9.67084 12.2466 12.2171 10.6029 14.2983C9.7922 15.3249 8.96461 16.2118 8.30846 16.8623C7.98057 17.1874 7.69697 17.452 7.48148 17.6441C7.37362 17.7402 7.28414 17.817 7.21565 17.8736C7.18137 17.9019 7.15361 17.924 7.13229 17.9405C7.10936 17.9581 7.09953 17.9648 7.09954 17.9648L7.66259 18.8243ZM0.00110248 7.39258C0.00173257 10.3196 1.68694 13.1121 3.36059 15.1641C4.20538 16.1998 5.06511 17.0685 5.74629 17.698C6.41235 18.3135 6.94031 18.7304 7.11877 18.8363L7.64336 17.9528C7.64374 17.953 7.63431 17.9472 7.61183 17.9315C7.59094 17.9168 7.56359 17.8969 7.52974 17.8714C7.46209 17.8205 7.37339 17.7508 7.26632 17.6632C7.05238 17.488 6.77021 17.2451 6.44369 16.9434C5.79022 16.3395 4.96524 15.5057 4.15687 14.5146C2.52418 12.5129 1.02921 9.95456 1.02866 7.39236L0.00110248 7.39258ZM2.25057 2.18046C0.729659 3.41737 -0.0341661 5.32007 0.00117653 7.4012L1.02859 7.38375C0.997661 5.56254 1.66268 3.98306 2.89891 2.97766L2.25057 2.18046ZM7.3811 9.64175C6.47833 9.64175 5.75271 9.33736 5.25417 8.84006C4.75587 8.34299 4.44796 7.61681 4.44796 6.70492H3.4204C3.4204 7.85591 3.81419 8.85504 4.52848 9.56756C5.24253 10.2798 6.24036 10.6693 7.3811 10.6693V9.64175ZM10.3141 6.70492C10.3141 7.62907 10.0106 8.35412 9.51757 8.84686C9.02451 9.33968 8.30034 9.64175 7.3811 9.64175V10.6693C8.53195 10.6693 9.53117 10.2861 10.244 9.57363C10.9569 8.86108 11.3417 7.86081 11.3417 6.70492H10.3141ZM7.3811 3.78231C8.29221 3.78231 9.0174 4.08489 9.51324 4.57812C10.0088 5.07103 10.3141 5.79295 10.3141 6.70492H11.3417C11.3417 5.55592 10.9517 4.55964 10.2379 3.8496C9.52441 3.13987 8.5262 2.75474 7.3811 2.75474V3.78231ZM4.44796 6.70492C4.44796 5.7919 4.75338 5.07007 5.24881 4.57748C5.74459 4.08454 6.46979 3.78231 7.3811 3.78231V2.75474C6.2362 2.75474 5.23794 3.13926 4.52431 3.84879C3.81033 4.55868 3.4204 5.55504 3.4204 6.70492H4.44796Z" fill="white"/>
</svg>
