<svg width="168" height="147" viewBox="0 0 168 147" fill="none" xmlns="http://www.w3.org/2000/svg">
<g opacity="0.5">
<path d="M3.76016 122.049C1.1274 123.462 -0.375962 122.312 0.0814857 119.24C0.406189 117.059 0.692684 116.818 2.62131 117.103C5.58211 117.543 6.30568 120.683 3.76016 122.049Z" fill="white"/>
<path d="M126.815 26.4066C128.72 28.9811 124.449 31.7654 122.159 29.4422C120.668 27.9299 120.78 27.5087 123.011 26.2182C124.874 25.1403 125.916 25.1922 126.815 26.4066Z" fill="white"/>
<path d="M167.29 4.78595C165.517 6.10198 163.119 4.9986 162.441 2.5541C161.931 0.715346 161.927 0.719284 164.212 0.0822455C166.712 -0.615106 169.28 3.3092 167.29 4.78595Z" fill="white"/>
<path d="M73.2603 66.7895C71.3421 66.7088 70.1798 66.0308 69.8365 64.7953C68.8124 61.1067 73.6596 60.4167 76.2273 63.8861C77.9333 66.1912 77.1533 66.9555 73.2603 66.7895Z" fill="white"/>
<path d="M88.096 104.501C87.5215 103.725 87.5975 102.45 88.2645 101.666C90.2812 99.2973 95.6671 101.652 94.5643 104.42C93.9117 106.056 89.29 106.115 88.096 104.501Z" fill="white"/>
<path d="M120.578 66.7896C118.361 66.6676 116.174 64.583 116.434 62.8376C116.664 61.2925 117.537 60.9888 120.216 61.5248C122.375 61.9563 122.721 62.3596 122.733 64.4664C122.747 66.5404 122.422 66.8905 120.578 66.7896Z" fill="white"/>
<path d="M21.372 142.903C19.7963 144.072 16.4715 142.971 15.9547 141.109C15.3924 139.082 17.2753 137.593 19.6614 138.176C21.7842 138.696 22.8976 141.77 21.372 142.903Z" fill="white"/>
<path d="M73.2605 145.891C71.5218 147.181 69.1081 145.719 68.3266 142.903C67.5145 139.977 71.0468 139.424 73.0722 142.161C74.5034 144.095 74.5461 144.936 73.2605 145.891Z" fill="white"/>
</g>
</svg>
