<svg width="87" height="159" viewBox="0 0 87 159" fill="none" xmlns="http://www.w3.org/2000/svg">
<g filter="url(#filter0_di_1_51)">
<path fill-rule="evenodd" clip-rule="evenodd" d="M27.8573 1.11279C21.8559 2.58009 14.6624 6.2138 11.4798 9.3864C9.80899 11.0514 8.02497 13.7701 6.39611 17.1348C-1.1596 32.7405 -2.16508 55.4833 4.14883 67.9456C7.00072 73.574 12.9977 77.5799 22.3358 80.0942C28.299 81.6996 41.5122 81.878 46.9067 80.425C51.8469 79.0952 53.6094 78.3265 53.3741 77.6042C53.2643 77.2662 51.7022 76.3849 49.9027 75.646C46.836 74.3869 45.7814 74.283 33.0879 73.9893C19.9769 73.6861 19.4579 73.6314 16.7993 72.2724C10.1839 68.8905 6.40107 57.3597 6.48058 40.8181C6.57445 21.2948 11.799 12.7655 26.4907 8.1516C30.0737 7.02669 31.7103 6.85826 38.9005 6.87814C45.6528 6.89637 48.0497 7.12886 51.8761 8.13448C62.0789 10.8172 71.7565 17.1983 75.1766 23.4977C76.8259 26.5356 78.4398 32.4379 79.8384 40.5452C81.3596 49.3634 81.1404 71.7864 79.3028 95.3603C77.0191 124.654 77.3918 142.728 80.5303 154.855L81.5308 158.721L81.8615 154.579C82.0437 152.301 82.5887 144.1 83.0724 136.355C83.5561 128.61 84.2982 117.427 84.7217 111.504C86.212 90.6569 86.816 72.6462 86.472 59.318C85.8492 35.1621 84.4092 28.6744 77.5094 18.9395C71.3187 10.2043 59.5693 2.92247 48.1369 0.735061C42.326 -0.377143 33.2591 -0.208158 27.8573 1.11279ZM39.1765 9.33063C31.914 10.7339 25.6824 13.9805 20.7124 18.9511C9.4407 30.2245 7.10343 46.3515 14.5874 61.2144C15.8551 63.7326 17.1046 65.3766 18.3216 66.1287C22.5588 68.748 35.6808 71.0221 42.4895 70.3174C46.7952 69.8718 52.5995 68.1737 53.4917 67.0985C54.4343 65.9631 50.5984 65.2761 37.9088 64.3091C32.0769 63.8645 25.98 63.103 24.3605 62.617C21.5644 61.7776 21.3457 61.5744 20.025 58.5929C14.3604 45.8003 15.7701 33.2099 23.8393 24.5238C32.4463 15.2594 44.9261 12.881 56.2034 18.3569C65.7596 22.9963 69.1249 31.102 70.6892 53.2434C71.3269 62.2697 71.227 66.9328 69.8168 93.8328C67.5375 137.325 67.3304 147.957 68.6738 152.58C69.554 155.607 72.3932 159.646 73.1264 158.913C73.3241 158.715 73.186 155.981 72.8194 152.838C71.4804 141.353 72.4743 123.734 76.8331 81.6836C77.7706 72.6374 77.7502 46.6083 76.801 41.3703C74.3423 27.8002 68.9908 18.833 60.1651 13.4945C54.2278 9.90274 45.3403 8.13945 39.1765 9.33063ZM33.8383 23.5805C28.4807 25.5001 24.4406 29.6872 22.8824 34.934C21.1994 40.6021 22.5373 54.0044 25.0651 56.7981C25.5824 57.3702 28.0379 58.4112 30.5209 59.1109C34.2137 60.1519 36.3915 60.3844 42.4895 60.3888C49.1927 60.3926 50.2086 60.2634 52.5735 59.1015C55.8931 57.4702 56.2282 56.9058 54.6402 55.6202C53.4807 54.6809 52.4222 54.598 43.0952 54.7168C33.4186 54.8399 32.6915 54.777 30.4801 53.62L28.1334 52.3924L28.1367 43.7063C28.1411 30.484 29.0715 28.6595 35.8001 28.6799C40.7673 28.6948 46.4871 29.5624 50.6227 30.9286L54.0627 32.0651L55.4143 36.3444C59.7609 50.1056 60.4047 65.1209 58.1039 99.079C56.8836 117.088 56.8864 140.943 58.1094 147.999C59.3065 154.907 60.2181 159.121 60.4622 158.877C60.7134 158.626 64.2687 122.44 65.4967 107.639C66.7142 92.9658 66.8876 54.9553 65.7678 48.2732C64.7088 41.9534 63.1716 37.7625 60.3589 33.528C57.4711 29.1797 54.9969 27.0872 49.9552 24.7275C45.1487 22.4777 38.2798 21.989 33.8383 23.5805ZM34.9558 33.1331C32.0217 33.8356 31.1703 35.7005 31.1703 41.4255C31.1703 48.831 32.3938 49.766 42.4895 50.0774C51.3439 50.3502 53.7259 49.698 53.9892 46.9269C54.2371 44.3236 53.1168 40.6198 51.3405 38.1684C48.2661 33.9272 40.9854 31.6896 34.9558 33.1331Z" fill="white"/>
</g>
<defs>
<filter id="filter0_di_1_51" x="-30.1247" y="-30.1247" width="207.065" height="279.499" filterUnits="userSpaceOnUse" color-interpolation-filters="sRGB">
<feFlood flood-opacity="0" result="BackgroundImageFix"/>
<feColorMatrix in="SourceAlpha" type="matrix" values="0 0 0 0 0 0 0 0 0 0 0 0 0 0 0 0 0 0 127 0" result="hardAlpha"/>
<feOffset dx="30" dy="30"/>
<feGaussianBlur stdDeviation="30"/>
<feComposite in2="hardAlpha" operator="out"/>
<feColorMatrix type="matrix" values="0 0 0 0 0 0 0 0 0 0 0 0 0 0 0 0 0 0 0.25 0"/>
<feBlend mode="normal" in2="BackgroundImageFix" result="effect1_dropShadow_1_51"/>
<feBlend mode="normal" in="SourceGraphic" in2="effect1_dropShadow_1_51" result="shape"/>
<feColorMatrix in="SourceAlpha" type="matrix" values="0 0 0 0 0 0 0 0 0 0 0 0 0 0 0 0 0 0 127 0" result="hardAlpha"/>
<feOffset dx="12" dy="12"/>
<feGaussianBlur stdDeviation="30"/>
<feComposite in2="hardAlpha" operator="arithmetic" k2="-1" k3="1"/>
<feColorMatrix type="matrix" values="0 0 0 0 1 0 0 0 0 1 0 0 0 0 1 0 0 0 0.5 0"/>
<feBlend mode="normal" in2="shape" result="effect2_innerShadow_1_51"/>
</filter>
</defs>
</svg>
