<svg width="15" height="10" viewBox="0 0 15 10" fill="none" xmlns="http://www.w3.org/2000/svg">
<path d="M5.26278 5.7974H7.60629C7.19493 6.96213 6.08082 7.79722 4.77649 7.78758C3.19386 7.77587 1.88524 6.50794 1.8238 4.92413C1.75794 3.2264 3.11798 1.82419 4.79884 1.82419C5.56739 1.82419 6.26874 2.11746 6.79748 2.598C6.92272 2.71185 7.11336 2.71258 7.23654 2.59646L8.0973 1.78515C8.2319 1.65825 8.23239 1.44396 8.09818 1.31663C7.25965 0.521053 6.1348 0.0251636 4.89436 0.000905118C2.24865 -0.0508244 0.0185483 2.12159 0.000119377 4.77166C-0.0184732 7.44163 2.13712 9.61185 4.79884 9.61185C7.35857 9.61185 9.44965 7.60466 9.58971 5.07624C9.59344 5.04454 9.5959 3.9732 9.5959 3.9732H5.26278C5.08516 3.9732 4.9412 4.11737 4.9412 4.29524V5.47535C4.9412 5.65323 5.0852 5.7974 5.26278 5.7974Z" fill="white"/>
<path d="M13.5669 4.08035V2.92732C13.5669 2.77145 13.4407 2.64511 13.2851 2.64511H12.316C12.1604 2.64511 12.0342 2.77145 12.0342 2.92732V4.08035H10.8829C10.7273 4.08035 10.6011 4.2067 10.6011 4.36257V5.33304C10.6011 5.48892 10.7273 5.61526 10.8829 5.61526H12.0342V6.76829C12.0342 6.92417 12.1604 7.05051 12.316 7.05051H13.2851C13.4407 7.05051 13.5669 6.92417 13.5669 6.76829V5.61526H14.7182C14.8739 5.61526 15 5.48892 15 5.33304V4.36257C15 4.2067 14.8739 4.08035 14.7182 4.08035H13.5669Z" fill="white"/>
</svg>
