<svg width="19" height="14" viewBox="0 0 19 14" fill="none" xmlns="http://www.w3.org/2000/svg">
<path d="M6.99871 14C6.80366 14 6.60861 13.9281 6.45462 13.7741L0.223281 7.5428C-0.0744271 7.24509 -0.0744271 6.75233 0.223281 6.45462L6.45462 0.223281C6.75233 -0.0744271 7.24509 -0.0744271 7.5428 0.223281C7.84051 0.520989 7.84051 1.01375 7.5428 1.31146L1.85554 6.99871L7.5428 12.686C7.84051 12.9837 7.84051 13.4764 7.5428 13.7741C7.39908 13.9281 7.19376 14 6.99871 14Z" fill="white"/>
<path d="M18.2193 7.76865H0.941993C0.521095 7.76865 0.172057 7.41961 0.172057 6.99872C0.172057 6.57782 0.521095 6.22878 0.941993 6.22878H18.2193C18.6402 6.22878 18.9893 6.57782 18.9893 6.99872C18.9893 7.41961 18.6402 7.76865 18.2193 7.76865Z" fill="white"/>
</svg>
